<svg width="1028" height="1028" viewBox="0 0 1028 1028" fill="none" xmlns="http://www.w3.org/2000/svg">
<rect x="1" y="1" width="1026" height="1026" fill="#2EA4AB"/>
<rect x="1" y="1" width="1026" height="1026" stroke="#EAEBEB" stroke-width="2"/>
<path fill-rule="evenodd" clip-rule="evenodd" d="M567.778 705.196L697.288 739.9L775.85 446.71C809.594 320.769 735.479 191.484 610.305 157.944C485.135 124.404 356.306 199.311 322.56 325.252L244 618.44L373.511 653.143L347.324 750.873C332.862 804.851 364.625 860.255 418.271 874.629C471.918 889.007 527.129 856.904 541.591 802.926L567.778 705.196ZM649.992 657.397L711.093 429.359C735.199 339.401 682.255 247.054 592.849 223.097C503.44 199.14 411.42 252.645 387.316 342.603L326.213 570.64L455.724 605.344L412.08 768.227C407.259 786.219 417.847 804.686 435.729 809.476C453.611 814.27 472.015 803.569 476.836 785.576L520.48 622.694L649.992 657.397Z" fill="#FDFEFE"/>
<path fill-rule="evenodd" clip-rule="evenodd" d="M306.082 635.076L373.512 653.143L347.326 750.873C332.862 804.851 364.625 860.256 418.272 874.629C471.919 889.007 527.129 856.904 541.592 802.926L567.779 705.197L697.289 739.9L775.851 446.71C783.662 417.553 785.694 388.216 782.648 359.93L716.427 398.162C715.64 408.52 713.884 418.955 711.093 429.359L649.992 657.397L520.481 622.694L476.837 785.577C472.015 803.569 453.612 814.27 435.73 809.476C417.848 804.686 407.26 786.215 412.081 768.227L455.725 605.34L388.692 587.38L306.082 635.076Z" fill="#FDFEFE"/>
</svg>
