<svg width="1024" height="1024" viewBox="0 0 1024 1024" fill="none" xmlns="http://www.w3.org/2000/svg">
<g clip-path="url(#clip0_4050_1098)">
<path d="M1024 0H0V1024H1024V0Z" fill="#6D87A8"/>
<path d="M512.142 768.021C559.271 768.021 597.476 729.816 597.476 682.688C597.476 635.56 559.271 597.355 512.142 597.355C465.014 597.355 426.809 635.56 426.809 682.688C426.809 729.816 465.014 768.021 512.142 768.021Z" fill="#FEFFFF"/>
<path d="M512.142 597.312C559.271 597.312 597.476 559.107 597.476 511.979C597.476 464.85 559.271 426.645 512.142 426.645C465.014 426.645 426.809 464.85 426.809 511.979C426.809 559.107 465.014 597.312 512.142 597.312Z" fill="#EAEBEB"/>
<path d="M341.191 767.979C388.32 767.979 426.525 729.774 426.525 682.645C426.525 635.517 388.32 597.312 341.191 597.312C294.063 597.312 255.858 635.517 255.858 682.645C255.858 729.774 294.063 767.979 341.191 767.979Z" fill="#FEFFFF"/>
<path d="M682.809 767.979C729.937 767.979 768.142 729.774 768.142 682.645C768.142 635.517 729.937 597.312 682.809 597.312C635.681 597.312 597.476 635.517 597.476 682.645C597.476 729.774 635.681 767.979 682.809 767.979Z" fill="#FEFFFF"/>
<path d="M341.191 597.312C388.32 597.312 426.525 559.107 426.525 511.979C426.525 464.85 388.32 426.645 341.191 426.645C294.063 426.645 255.858 464.85 255.858 511.979C255.858 559.107 294.063 597.312 341.191 597.312Z" fill="#FEFFFF"/>
<path d="M341.191 426.645C388.32 426.645 426.525 388.44 426.525 341.312C426.525 294.184 388.32 255.979 341.191 255.979C294.063 255.979 255.858 294.184 255.858 341.312C255.858 388.44 294.063 426.645 341.191 426.645Z" fill="#FEFFFF"/>
<path d="M512.142 426.645C559.271 426.645 597.476 388.44 597.476 341.312C597.476 294.184 559.271 255.979 512.142 255.979C465.014 255.979 426.809 294.184 426.809 341.312C426.809 388.44 465.014 426.645 512.142 426.645Z" fill="#EAEBEB"/>
<path d="M682.809 597.312C729.937 597.312 768.142 559.107 768.142 511.979C768.142 464.85 729.937 426.645 682.809 426.645C635.681 426.645 597.476 464.85 597.476 511.979C597.476 559.107 635.681 597.312 682.809 597.312Z" fill="#EAEBEB"/>
<path d="M682.809 426.645C729.937 426.645 768.142 388.44 768.142 341.312C768.142 294.184 729.937 255.979 682.809 255.979C635.681 255.979 597.476 294.184 597.476 341.312C597.476 388.44 635.681 426.645 682.809 426.645Z" fill="#EAEBEB"/>
</g>
<defs>
<clipPath id="clip0_4050_1098">
<rect width="1024" height="1024" rx="160" fill="white"/>
</clipPath>
</defs>
</svg>
