<svg width="214" height="264" viewBox="0 0 214 264" fill="none" xmlns="http://www.w3.org/2000/svg">
<path d="M131.69 0.0900002L213.36 0L76.34 136.95L40.63 172.46L0 131.78L131.69 0.0900002ZM130.93 122.37C131.99 120.97 133.94 121.66 135.42 121.48L213.29 121.5L142.32 192.4L101.48 151.81L130.93 122.37Z" fill="#44D1FD"/>
<path d="M60.77 192.47L101.48 151.81L142.32 192.4L142.49 192.58L101.49 233.2L60.77 192.47Z" fill="#1FBCFD"/>
<path d="M101.49 233.2L142.49 192.58L213.32 263.48C186.64 263.54 159.97 263.46 133.3 263.52C131.78 263.86 130.84 262.47 129.87 261.61L101.49 233.2Z" fill="#08589C"/>
</svg>
