<svg width="535" height="534" viewBox="0 0 535 534" fill="none" xmlns="http://www.w3.org/2000/svg">
<path d="M267.5 0.10669C232.387 0.105045 197.617 6.99707 165.177 20.3893C132.736 33.7814 103.259 53.4115 78.4293 78.1587C53.5995 102.906 33.903 132.285 20.4644 164.62C7.0257 196.955 0.108072 231.611 0.106448 266.611C0.101177 301.614 7.01371 336.276 20.4493 368.617C33.8849 400.958 53.5803 430.344 78.4107 455.096C103.241 479.849 132.72 499.484 165.165 512.879C197.609 526.275 232.382 533.168 267.5 533.167C302.617 533.168 337.391 526.275 369.835 512.879C402.279 499.484 431.759 479.849 456.589 455.096C481.419 430.344 501.115 400.958 514.55 368.617C527.986 336.276 534.899 301.614 534.893 266.611C534.892 231.611 527.974 196.955 514.535 164.62C501.097 132.285 481.4 102.906 456.57 78.1587C431.741 53.4115 402.264 33.7814 369.823 20.3893C337.382 6.99707 302.613 0.105045 267.5 0.10669ZM249.028 120.774H417.261L248.348 239.505H363.835L117.739 412.447L171.165 293.769L195.602 239.505L249.028 120.774Z" fill="white" fill-opacity="0.980392"/>
</svg>
